<svg xmlns="http://www.w3.org/2000/svg" width="70" height="134.429" viewBox="0 0 70 134.429">
  <g id="Group_1" data-name="Group 1" transform="translate(-4 -2)">
    <path id="Shape_1" data-name="Shape 1" d="M37.783,559h.286v.142C37.818,559.052,37.93,559.114,37.783,559Zm1.718,0h.286v.142C39.536,559.052,39.648,559.114,39.5,559Zm-2.29.142a19.738,19.738,0,0,0,3.865.142c.055.37-.106.185.286.283.146-.114.039-.05.286-.142.045.556,1.348.871,1.861,1.416a13.772,13.772,0,0,1,1.861,3.54c.194.6-.322,2.11.143,2.832.09-.248.028-.138.143-.283V568.2a9.233,9.233,0,0,0,0,3.4c1.117.627,2.36.56,3.292.991.278.129.47-.2.573-.142v.283c.278.13.47-.2.573-.142a3.545,3.545,0,0,0,.716.425h.143v-.142a3.034,3.034,0,0,0,2.147.566c.03.2-.118-.057-.143.142-.275.11.286.142.286.142.174-.091.754.348,1.431.283l-.143.283h.143c.948-.07,2.979,1.371,4.724,2.265a28.561,28.561,0,0,1,3.436,2.124c.336.233,1.36.907,1.575.708a18.882,18.882,0,0,0,3.722,3.115l1.288,1.416a11.933,11.933,0,0,1,2.434,2.124c.444.588,1.023,1.005,1.431,1.557.29.392.382.93.716,1.274-.66,2.842-2.912,5.363-4.438,7.5-2.351,3.3-5.371,7.249-8.589,9.628-2.145,1.585-4.532,2.983-6.585,4.672l-.286-.142c-1.114.652-2.646,1.055-3.722,1.841l.143.283-.429-.142v.142h.143c.233.174-.286.142-.286.142-.221-.1-.019-.018-.429,0v-.283c.134-.27.054-.166,0-.566.907.02.219-.722.429-1.133.534.186.524-.836.716-1.416a8.752,8.752,0,0,0,.573-3.115c-.441-.338.44-.579,0-1.416-.635-1.208-.282-2.028-1.145-3.4a16.117,16.117,0,0,0-6.012-5.239c-.027.051-.88-.359-1.145-.425-.144.213-.086-.056-.429-.142-.182.261-.025-.061-.286-.142a21.753,21.753,0,0,0-4.724-.283v.142h.143c.275.11-.286.142-.286.142-1.076-.538-7.246,2.747-7.444,5.239.155.129.012-.011.143.142l.429-.142c.055.358-.083.223.429.283.186-.257,1.668-.179,2.29-.283-.036.474.319.368.859.283,0,.056,2.047,2.6,2.434,3.115a3.748,3.748,0,0,0,0,1.557c.169.162.343-.113.286.283-.458.489-.062,1.006-.143,1.133-.34.531-.531.687-.429,1.416-.532.085-.722.949-1.145,1.558a11.033,11.033,0,0,1-3.436,2.549c-.146-.114-.039-.05-.286-.142v.142h.143c.275.11-.286.142-.286.142a4.237,4.237,0,0,0-1.288,0c-.055.371.106.185-.286.283-.537-.35-1.512.1-2,0a5.64,5.64,0,0,0-2.577-.708l.143-.283h-.143c-.167.076-.11-.048-.573,0-.06-.6-1.426-1.4-2-1.982a20.307,20.307,0,0,1-2-3.4c.221-.458-.256-1.226-.429-1.7l.143-1.416c-.418-.068-.317-.855-.286-1.7h.286c.237-.3-.16-1.155-.143-1.274v-.142c.458-.5.211-1.3.286-1.416h.286l-.143-.708c.179.082,1.7-3.43,2.29-4.248,1.463-2.015,6.22-5.294,8.16-5.239-.106-.123-.18-.16-.286-.283l.716.142v-.142H31.2c-.275-.11.286-.142.286-.142.277.114.3,0,.859,0v-.142H32.2c-.275-.11.286-.142.286-.142.154.106.135.085.429.142v-.142h-.143c-.275-.11.286-.142.286-.142.34.16,1.219-.148,2-.142.055-.37-.106-.186.286-.283a1.251,1.251,0,0,0,.716.142c.055-.358-.083-.223.429-.283a27.111,27.111,0,0,0,3.436-.142c.061.381.355.311,1.145.283.29-.131.828.049,1.431,0,.055.358-.083.223.429.283.146-.114.039-.05.286-.142.055.358-.083.223.429.283.154-.106.135-.085.429-.142v.142c-.251.089-.139.027-.286.142h.286c.154-.106.135-.085.429-.142.03.2-.118-.057-.143.142-.275.11.286.142.286.142a2.285,2.285,0,0,1,.859.142c-.251.089-.139.027-.286.142,2.921.264,5.426,2.5,8.732,4.814,1.386.969,2.93,3.144,3.865,3.681.507-.8,1.317-1.267,1.861-1.982,1.384-1.821,3.329-3.731,4.581-5.239-2.3-1.466-4.018-3.869-6.442-5.239-.387-.219-.4.16-.716,0,.051-.19.234-.262,0-.425a7.672,7.672,0,0,0-1.288-.425l-.143-.425a4.322,4.322,0,0,0-1.145-.283c-.182-.149-.316-.472-.573-.566l-.286.142c-.109-.088-.128-.357-.286-.425-.28-.12-.581.12-.716,0a4.5,4.5,0,0,0-3.292-1.133c-.03-.2.118.057.143-.141.275-.11-.286-.142-.286-.142a13.336,13.336,0,0,1-1.431-.283c.251-.089.139-.027.286-.142l-.716.142c-.055-.37.106-.185-.286-.283-.428.16-1.906-.389-3.006-.283-.04-.369,0-.279-.716-.283a1.251,1.251,0,0,1-.716.142c-.067-.406-.736-.314-1.575-.283-.823.323-1.9.02-3.149,0-.04.366.067.251-.573.283a1.913,1.913,0,0,0-1-.142c-.04.366.067.251-.573.283a1.25,1.25,0,0,0-.716-.142c-.055.37.106.185-.286.283a1.25,1.25,0,0,0-.716-.142v.142H34.2c.275.11-.286.142-.286.142-.28-.154-.83,0-1.432,0v.142h.143c.275.11-.286.142-.286.142-.169-.114-.241-.109-.573-.142v.142h.143c.275.11-.286.142-.286.142a6.307,6.307,0,0,0-2.147.425c.251.089.139.027.286.142a2.121,2.121,0,0,0-1.718.283c.251.089.139.027.286.142-1.341-.113-4.1,1.542-4.581,1.416-.257-.067-1.3.564-1,.708l-.429-.142c-.387.279-1.473.535-2.147.991-.241.163-.471.481-.286.566l-.429-.142c-.492.232-.565.61-.859.708-.221-.1-.019-.018-.429,0-.169.375.128.254-.286.425a3.822,3.822,0,0,0-2.434,1.7,1.986,1.986,0,0,0-.286,1.274h.143v-.142c.111-.272.143.283.143.283a12.707,12.707,0,0,0,1,3.964c.09-.248.028-.138.143-.283v.425a.564.564,0,0,0,0,.708c.053-.294.035-.272.143-.425v.708c-.344.2-.5,2.018-1,2.832-1.353,2.172-4.506,4.977-6.012,4.956v.142h.143c.275.11-.286.141-.286.141-.146-.114-.039-.05-.286-.141v.141H9.44c.275.11-.286.142-.286.142-.154-.106-.135-.085-.429-.142v.142c.251.089.139.027.286.142H8.581c-.154-.106-.135-.085-.429-.142v.142c.3.053.275.034.429.142a10.113,10.113,0,0,1-1.288,0c-.251-.089-.139-.027-.286-.142.115-.145.051-.039.143-.283,1.175-.778,2.236-3.251,2.434-4.106-.108-.152-.086-.134-.143-.425h.143c.09.248.028.138.143.283v-.425c-.115-.145-.051-.039-.143-.283.37-.039.254.066.286-.566a.41.41,0,0,1,0-.566c.053.294.035.272.143.425v-1.274H9.869c-.09.248-.028.138-.143.283v-.425c.255-.55-.68-1.4-1.145-1.7-1.26-.815-2.635-.814-3.579-2.124-.472-.655-.474-1.681-1-2.265.9-3.928,5.176-6.531,8.16-8.354.539-.33,2.557-1.966,2.72-1.841,1-.306,1.616-1.327,2.577-1.416v-.142l-.143-.142H17.6c.848.1,3.18-1.983,4.151-1.841v-.142l-.143-.142h.286c.357.133.559-.134.859-.142V575l-.143-.142H22.9a5.316,5.316,0,0,0,2-.708c-.067-.313.568.018.859-.142v-.283l.429.142v-.283s.556.029.286-.142l.573.142V573.3c.164-.108.622.123.859,0v-.283h.143v.141c.039.011,1.425-.42,1.431-.425-.251-.089-.139-.027-.286-.142l.716.142c-.106-.123-.18-.16-.286-.283.471.051.656.21,1,0-.3-.053-.275-.034-.429-.142l1,.142v-.142h-.143c-.275-.11.286-.142.286-.142.451.279,1.312-.234,1.575-.425,2.229.336,5.478-3.512,5.01-5.947.394-.062.317-.476.286-1.274-.243-.1-.523-1.394-.859-1.841-.6-.8-1.679-.942-2-1.416-.355,0-1.524-.326-1.718-.708-.115-.145-.051-.039-.143-.283l.286.142v-.142l-.143-.142h.286a1.572,1.572,0,0,0,1.145-.283c-.251-.089-.139-.027-.286-.142l.716.142v-.142H35.35c-.275-.11.286-.142.286-.142C35.851,559.612,36.977,559.512,37.211,559.142Zm7.444,3.256c.115.145.051.039.143.283h-.143Zm.286.708c.115.145.051.039.143.283h-.143Zm-7.3.425c.115.144.051.039.143.283H37.64Zm7.73,1.274c.108.152.086.134.143.425H45.37Zm-7.444.283a.41.41,0,0,1,0,.566Zm7.587.991c.115.145.051.039.143.283h-.143ZM37.5,567.354c.115.145.051.039.143.283H37.5Zm8.16,3.54c.115.145.051.039.143.283h-.143Zm5.869,2.124h.286v.141C51.561,573.069,51.673,573.131,51.526,573.017Zm.859.283h.286v.142C52.42,573.353,52.532,573.415,52.384,573.3Zm-28.773,1.133H23.9v.142C23.647,574.485,23.759,574.547,23.611,574.433Zm-1.718.708h.286v.142C21.929,575.193,22.041,575.255,21.894,575.141Zm17.035,4.531h.286v.142C38.964,579.724,39.076,579.786,38.928,579.672Zm2.577,0h.286v.142C41.54,579.724,41.652,579.786,41.505,579.672Zm2,.142H43.8v.142C43.544,579.866,43.656,579.927,43.509,579.813Zm-8.16.142c.3.053.275.034.429.142C35.482,580.044,35.5,580.062,35.35,579.955Zm9.448,0h.286v.142C44.833,580.007,44.945,580.069,44.8,579.955Zm.859.142h.286v.142C45.692,580.149,45.8,580.211,45.656,580.1Zm-17.178,1.274h.286v.142C28.514,581.423,28.626,581.485,28.479,581.371Zm-6.585,2.549h.286v.141C21.929,583.972,22.041,584.034,21.894,583.919Zm14.744,3.4c.3.053.275.034.429.142C36.77,587.406,36.792,587.425,36.638,587.317Zm3.579,0c.3.053.275.034.429.142C40.349,587.406,40.371,587.425,40.217,587.317Zm-5.726.283h.286v.142C34.526,587.653,34.638,587.715,34.491,587.6Zm-1.432.283h.286v.142C33.095,587.936,33.207,588,33.059,587.884Zm-28.916.283c.115.145.051.039.143.283H4.143Zm69.714.142c.115.145.051.039.143.283h-.143Zm-58.548.142c.115.145.051.039.143.283h-.143Zm58.548.991c.115.145.051.039.143.283h-.143Zm-69.714.425c.115.145.051.039.143.283H4.143Zm.143.425c.115.145.051.039.143.283H4.286Zm11.6.849c.115.145.051.039.143.283h-.143Zm-8.732,2.124h.286v.142C7.184,593.316,7.3,593.378,7.149,593.264Zm9.448,1.274c.115.145.051.039.143.283H16.6Zm21.186.85h.286v.142C37.818,595.44,37.93,595.5,37.783,595.388Zm2.577,0c.3.053.275.034.429.142C40.492,595.477,40.514,595.5,40.36,595.388Zm1,.142h.286v.142C41.4,595.582,41.509,595.644,41.362,595.529Zm-25.051.283c.115.145.051.039.143.283h-.143Zm4.581,1.274c.115.145.051.039.143.283h-.143Zm-.716,2.265c.115.145.051.039.143.283h-.143Zm11.166,1.274h.286v.142C31.377,600.679,31.489,600.741,31.342,600.626Zm.573,0H32.2v.142C31.949,600.679,32.061,600.741,31.914,600.626Zm.573,0h.286v.142C32.522,600.679,32.634,600.741,32.487,600.626Zm-12.6.425c.108.152.086.134.143.425H19.89Zm30.348,1.274c.115.145.051.039.143.283h-.143Zm-14.172.991c.115.145.051.039.143.283h-.143Zm-16.176.708c.108.152.086.134.143.425H19.89Zm16.605.425c.115.145.051.039.143.283h-.143Zm14.458.708c.108.152.086.134.143.425h-.143Zm0,1.557c.108.152.086.134.143.425h-.143Zm-14.6.849c.115.145.051.039.143.283h-.143Zm-15.46.283c.115.145.051.039.143.283h-.143Zm29.918,0c.115.145.051.039.143.283H50.81Zm-14.6.142c.115.145.051.039.143.283h-.143Zm14.315,1.133c.115.145.051.039.143.283h-.143Zm-.429,1.274c.115.145.051.039.143.283h-.143Zm-.429,1.133c.115.145.051.039.143.283h-.143Zm-24.335.849h.286v.142C25.364,612.43,25.476,612.492,25.329,612.378Zm1.861.566h.286v.142C27.225,613,27.337,613.059,27.19,612.945Zm3.006,0h.286v.142C30.232,613,30.344,613.059,30.2,612.945Zm18.9.142h.286v.142C49.127,613.138,49.239,613.2,49.092,613.086Z" transform="translate(0 -476.799)" fill="#e20d17"/>
    <path id="Shape_2" data-name="Shape 2" d="M86.4,2a.409.409,0,0,1,0,.568Zm.145.852c.67,1.08.257,2.9.579,4.259a45.061,45.061,0,0,1,1.157,7.1c.047,1.352-.862,2.3-.723,3.833.288,3.171,1.872,4.639,1.012,7.951a7.319,7.319,0,0,0-1.157.852c-3.358.068-3.554-2.336-2.748-5.111.39-1.345,1.32-3.127,1.012-4.685-.239-1.212-1.12-2.533-.723-4.259a53.716,53.716,0,0,0,1.3-9.8C86.5,2.9,86.391,2.966,86.54,2.852Zm9.836,17.179c.2.433-.68,2.174-.868,2.982-.4,1.705.152,3.323-.434,4.685-.818,1.9-2.071,1.54-3.616,2.556-.883.581-.817,1.713-1.446,2.556v-.142a4.628,4.628,0,0,1-.145-1.988c.545-.772.606-1.826,1.157-2.556.641-.848,1.889-1.17,2.314-2.272.412-1.066.011-2.434.579-3.265C94.544,21.669,95.718,20.994,96.376,20.031Zm-7.811,9.228c.117,1.226.844,2.313.868,3.975-.38.393-.534.824-1.012,1.136a21,21,0,0,0-.723-5.111,7.272,7.272,0,0,0-2.025-.142v.142h-.145a24.729,24.729,0,0,1-.579,2.982c-.059.585.207,1.583,0,1.988-.091.249-.028.138-.145.284v-.142c-1.7-1.1-.475-3.718.145-4.969a1.49,1.49,0,0,1-1.591-1.42c.265-.182.248-.279.579-.426.656-.418,4.827-.166,5.641,0,.142.431.284.424.434.852-.364.278-.365.528-.868.71C88.973,29.231,88.9,29.227,88.565,29.259Zm-.434-1.136-.145.284C88.239,28.209,88.131,28.124,88.131,28.124Zm-3.182.142v.142H84.8c-.278.11.289.142.289.142C85,28.3,85.066,28.412,84.949,28.266Zm-2.893,4.685c2.179.838,3.656,4.262,2.748,7.1-.395,1.234-1.376,2.076-1.736,3.265h.145a1.947,1.947,0,0,1,1.012-.142c.222-.884.9-1.626,1.157-2.414V39.482l1.157-5.963h.145A34.549,34.549,0,0,0,89,43.173l1.3.142v-.142c-1.815-1.306-2.484-4.872-1.591-7.241.348-.923.974-3.087,2.025-2.7h.145a8.111,8.111,0,0,0-1.157,3.975A4.279,4.279,0,0,1,91.6,40.9a6.2,6.2,0,0,0-1.3,1.278h.145c.618,1.607,3.4,1.149,3.761,2.84-.452.285-.789.777-1.3.994l-3.327.71v.142H90.3c.505-.324,1.974-.161,2.748-.142v.142a13.449,13.449,0,0,0-2.6,3.123c-.157-.129-.012.011-.145-.142-1.3-.981-1.854-2.4-3.616-3.123a5.055,5.055,0,0,0-3.037,0c-1.529.216-3.36-.829-4.195-1.42-.385-.272-.533-.212-.579-.426v-.142H78.73c.865-.776,2.152-.761,3.182-1.42l.868-.994c-.385-1.061-1.126-1.226-1.157-2.84.659-.656,2.212-2.746,1.736-4.4C83.112,34.225,82.352,33.736,82.056,32.951Zm8.823,0c.116.145.051.039.145.284h-.145Zm-3.037,8.661a1.661,1.661,0,0,0-1.157.71c-.518-.265-.641-.578-1.3-.71v.142h-.145a3.978,3.978,0,0,0,.289,1.42l2.459-.142v-.284A2.208,2.208,0,0,1,87.842,41.611Zm-10.414,5.4c.161.236.256.152,0,.284Zm18.225,0c.058.185-1.754,3.609-2.025,4.685-.2.8.1,1.573-.289,2.13-.594-.449-1.172-.494-1.446-1.278C90.05,50.23,94.761,47.863,95.653,47.006Zm-15.187.142h5.207v.142c-1.1.685-1.889,1.992-3.182,2.414v-.142A8.74,8.74,0,0,1,80.465,47.148Zm-2.748.142a5.211,5.211,0,0,1,3.905,4.827A5.105,5.105,0,0,1,79.6,53.963a9.564,9.564,0,0,0-.434-3.833C78.762,49.185,77.927,48.415,77.717,47.29Zm8.823.426a2.617,2.617,0,0,1,1.3,2.556c-.418.513-.808,1.181-1.157,1.7H86.54v-.142a2.7,2.7,0,0,1-1.157-2.556A18.229,18.229,0,0,0,86.54,47.716Zm-3.182,2.13a3.713,3.713,0,0,1,1.88,4.969c-.254-.09-.14-.027-.289-.142-1.261-.21-1.47-1.109-2.17-1.846A4.2,4.2,0,0,1,83.358,49.846ZM87.7,54.673c-.067-3.168.216-3,1.88-4.685.254.09.141.027.289.142a.875.875,0,0,1,.289.284,2.285,2.285,0,0,1,0,2.556c-.315.984-1.075,1.094-1.736,1.7ZM76.56,50.84a8.677,8.677,0,0,1,2.025,1.846,6.157,6.157,0,0,1-.145,2.272l-.434.142a4.7,4.7,0,0,1-3.182.142h.289C76.524,53.841,77.219,53.5,76.56,50.84Zm19.816.142h.289v.142C96.411,51.034,96.525,51.1,96.376,50.982Zm-.145.142c.459.484-.2,1.434.145,2.272.335.809,1.121,1.194,1.591,1.846a12.028,12.028,0,0,1-2.748,0l-.723-.852C94.418,52.6,95.19,52.13,96.231,51.124Zm-5.062,1.846a8.61,8.61,0,0,1,2.748,2.414H89C89.367,54.351,90.576,53.834,91.169,52.969Zm-9.4.142a4.662,4.662,0,0,1,2.17,1.846c.091-.022.247-.025.145.142a27.833,27.833,0,0,1-4.484.142l-.145-.284A6,6,0,0,0,81.767,53.111ZM79.308,55.1c.051.043.289.074.145.284C79.292,55.314,79,55.131,79.308,55.1ZM71.5,56.235c.872.141,1.757.378,2.025,1.136.732,1.02-.8,2.249-.434,3.407.3.969.912.947.579,2.556a7.181,7.181,0,0,1-2.17.994v-.284c1.193-1.444-1.027-3.213-1.736-3.833a25.891,25.891,0,0,1,2.025-2.13A5.985,5.985,0,0,0,71.5,56.235Zm29.8,0,.434.142c-.831,1.719.522,3.106,1.736,3.691-.983,1.764-2.441,1.331-1.736,4.259h-.289c-.373-.271-.9-.3-1.3-.568-1.587-1.076-.152-2.336.145-3.691a2.993,2.993,0,0,1-.723-2.84A12.653,12.653,0,0,0,101.294,56.235ZM77.139,57.513c.714.024,1.1.175,1.3.71.566.859-.493,1.441-.289,2.414.078.375.6.821.434,1.42-.006.023-.26.389-.289.426a2.308,2.308,0,0,1-1.446.426c-.867-.842-2.619-1.482-2.893-2.84a19.215,19.215,0,0,1,1.736-1.846C76.131,57.914,76.724,57.841,77.139,57.513Zm4.773.142A7.379,7.379,0,0,1,83.5,57.8a2.124,2.124,0,0,1,.289.568c.35.573-.147,1-.289,1.42a5.987,5.987,0,0,0,.289,2.414c-.028.089-.236.443-.289.568a2.679,2.679,0,0,1-1.3.284,18.807,18.807,0,0,0-3.182-2.556c.114-.3,0-.256.145-.426C80,59.195,81.071,58.524,81.912,57.655Zm4.628,0c.552.393,2.376,2.167,2.17,2.7a5.945,5.945,0,0,1-2.17,2.414L84.226,60.21A10.909,10.909,0,0,0,86.54,57.655Zm3.471,0c1.822-.043,3.772,1.277,3.905,2.84-1.212.8-1.691,2.314-3.616,2.414-.649-.511-.9-.462-.868-1.7.675-.862-.177-2.07,0-3.123A2.606,2.606,0,0,0,90.012,57.655Zm5.5,0a1.551,1.551,0,0,1,.868.142c1.2.393,1.91,1.62,2.893,2.272-.091.249-.028.138-.145.284-.4,1.391-1.818,1.691-2.748,2.556l-1.446-.142a2.441,2.441,0,0,0-.434-.71,4.967,4.967,0,0,0,.434-2.414c-.061-.321-.5-.689-.289-1.278C94.775,57.984,95.224,57.895,95.508,57.655Zm10.414,1.136h.289c-.012.361.822,3.711,1.3,3.975.309-.067.15-.135.434.142,3.23,4.215-2.047,9.689-6.075,5.821v-.284h.434c.572.574,2.55,1.1,3.471.426.969-.257,1.151-.954,1.736-1.562.067-1.569-.427-2.052-2.025-1.988l-.145.426H105.2c-.143.143.143.14.145.142.467.4,1.051.341,1.3.994-.1.109-.19.317-.289.426-1.085,1.089-2.15.3-2.893-.426l.145-2.982c.3.112.261,0,.434.142.344.318.253.451.868.568V64.47c-.959-1.056.473-2.109.723-2.84Zm-39.053.426H67.3l.434,2.7c.14.327.6.679.723.994.244.634-.1,1.229.434,1.562a1.521,1.521,0,0,1,.579-.71c.08,1.393.453,2.221.145,3.549a3.265,3.265,0,0,1-1.591.71,2.523,2.523,0,0,0-.868-.284c-.229-.417-.625-.871-.434-1.278.242-.371.655-.206,1.012-.426.109-.152.087-.134.145-.426a2.525,2.525,0,0,0-1.3-.426,3.66,3.66,0,0,0-.723,2.414c2.247,2.238,2.371,1.661,5.352.852v.142h.145a3.62,3.62,0,0,0-.289.71c-2.392,1.461-5.611.429-6.509-1.7-.551-1.309.062-4.451,1.012-4.969.155.107.137.085.434.142Zm9.257,4.259a10.138,10.138,0,0,0,2.025,0c1.839.175,6.59.558,8.534.142a11.282,11.282,0,0,1,3.761,0c1.2.271,2.4-.243,3.471,0,1.91.431,2.785-.285,4.339.426-.131.154.011.012-.145.142-.976.889-3.171.1-4.773.426-1.624.332-4.422,0-6.509,0-4.018,0-8.3.561-11.716-.284l-.145-.284a2.607,2.607,0,0,0,.579-.426C75.884,63.59,75.956,63.59,76.126,63.476Zm8.389,1.7c.3.293.311.473,0,.852-1.333,1.07-5.155.126-5.93,1.7-.763.889-.367,4.4-1.3,4.827V72.7h-.145a15.355,15.355,0,0,1,.145-6.389c1.736-1.042,2.533-.519,4.773-.994C82.84,65.155,83.951,65.527,84.515,65.179Zm7.811.142a27.121,27.121,0,0,1,3.037.426c.18.261.589.47.723.71.5.885.229,5.445-.145,6.247l-.289-.142c-.51-1.546-.62-3.635-1.012-5.111-1.571-.724-4.045-.886-5.93-1.278a2.124,2.124,0,0,1-.289-.568C89.336,65.325,91.518,65.824,92.326,65.321Zm-20.105.426a7.892,7.892,0,0,1,2.025.426c.274.384.767.63,1.012.994,1.076,1.6.821,4.773-.579,5.821v.142h-.145v-.284a2.781,2.781,0,0,0,0-2.414c-1.472-.7-1.347.012-2.459-1.278.226-.987.759-1.432.868-2.556A3.794,3.794,0,0,1,72.221,65.747Zm27.916,0h.723v.142c-1.178.911.079,2.1.145,3.549-.542.322-2.23.951-2.459,1.42-.332.514-.03,1.558-.145,1.988l-.289-.142c-.819-1.636-1.231-4.182,0-5.821C98.575,66.266,99.509,66.212,100.136,65.747ZM69.183,79.661,69.039,76.4c.272-.814.931-.932,1.012-2.13a7.7,7.7,0,0,1-4.918-3.407h1.591c.379-.252,2.067-.022,3.182,0,.532,1.034.314,2.15,2.025,2.13a11.629,11.629,0,0,1,1.736-.852V72.7a11.7,11.7,0,0,0-2.459,3.975,13.69,13.69,0,0,0,.145,1.7l-1.736,1.278ZM103.9,70.716h4.918v.142h-.289a15.751,15.751,0,0,1-1.88,1.136l-1.736,1.988c-.9.462-1.763-.5-1.88,1.136,1.81.614.685,2.848,1.157,4.4H103.9v.142c-.146.141-.143-.14-.145-.142a2.471,2.471,0,0,1-1.88-1.278c-.4-.714.372-1.428.145-2.13-.151-.465-.755-.52-1.012-.852a13.037,13.037,0,0,1-1.446-2.982H99.7a5.645,5.645,0,0,0,2.893.568,2.841,2.841,0,0,0,.289-1.562A10.241,10.241,0,0,0,103.9,70.716Zm-5.5,2.13h.289C98.518,73.075,98.63,73.02,98.4,72.846ZM75.692,73.982a7.645,7.645,0,0,1,2.6.426c.517.733,1.255,2.208.145,2.981a1.728,1.728,0,0,1-1.157.284,4.776,4.776,0,0,1-.579-.568,4.762,4.762,0,0,1-.434-1.7H75.4a3.558,3.558,0,0,1-.579.71,14.709,14.709,0,0,0,.145,3.549c.956,3.585,2.576,5.389,1.3,9.37h-.289v-.284c.759-.943.49-2.989,0-4.117-.77-1.772-3.642-5.367-2.748-8.377.326-1.1,1.179-1.427,1.88-2.13C75.45,74.1,75.522,74.1,75.692,73.982Zm20.105,0c8.371-.231,2.1,8.585,1.157,11.358-.312.922.035,2.585-.145,3.265-.116-.145-.051-.039-.145-.284-.81-.684-.511-2.478-.145-3.549.891-2.607,2.385-5.921,1.736-8.945l-1.012-.568c-.19.7-.591,2.023-1.3,2.272-.349.21-.631.05-1.157,0a3.559,3.559,0,0,0-.579-.71C94.155,74.823,94.726,74.8,95.8,73.982ZM61.228,77.673c-.078,5.8,2.918,3.665,4.773,6.389.432.635.12,2.089.579,2.414.253-.269.729-.488.868-.852s-.014-.75.145-.994c2.171,2.1,2.862,2.655,1.88,6.247-1.113.755-1.67,1.241-3.327.852-.4-.583-.7-.658-.723-1.7.469-.268,1.1-.584,1.3-1.136h.145v-.142h-.145a1.347,1.347,0,0,0-1.157-.71c-.551.415-1.044.4-1.3,1.136a2.53,2.53,0,0,0,0,2.414c.291,1.047,1.189,1.345,1.88,1.988,2.4.194,2.864-.373,4.773-.994v.568c-.646.685-.964,1.409-1.88,1.846a5.307,5.307,0,0,1-4.339-.284,5.938,5.938,0,0,1-3.471-3.975c-.3-1.151.281-1.755,0-2.982a11.873,11.873,0,0,1-.434-1.988h1.3v-.142c-3.083-1.915-2.071-4.667-1.3-7.951Zm50.914.426c.717.394.766.965,1.012,1.846.75,2.674-1.029,4.378-2.025,5.821.618-.033,1.067-.1,1.3.284-.888,1.323-.036,3.945-.723,5.537-1.524,3.53-8.166,5.8-9.691.994.157-.129.012.011.145-.142,1.465.746,3.7,2,5.641.71.594-.4.819-1.193,1.3-1.7.06-.817.294-1.662-.145-2.272a1.288,1.288,0,0,0-1.3-.994c-.1-.08-.006-.2-.289-.142v.142c-.535.126-.694.219-.868.71,1.165.811,1.6,1.928.579,2.982-5.242.323-4.715-5.464-1.3-7.383-.047,1.063.087,1.593.868,1.846v.142h.145C106.795,81.461,111.679,83.679,112.142,78.1ZM101,79.377a2.075,2.075,0,0,1,1.591,1.136c1,1.023.011,2.808-.289,3.833h-.289c-.962-.715-1.5-.624-1.446-2.414C101.244,81.138,101.09,80.425,101,79.377Zm-28.928.142c.135,1.043,1.061,3.073.723,3.833-.224.318-1.633,1.12-1.736.994-.6-.576-1.305-2.436-.723-3.265.231-.872.761-1.032,1.3-1.562Zm1.446,4.4a14.9,14.9,0,0,1,1.3,4.4,4.777,4.777,0,0,1-.579.568,2.757,2.757,0,0,1-2.17.284v-.852c.695-1.154,0-3.3,1.013-4.117C73.2,84.107,73.411,84.018,73.523,83.92Zm26.035,0c.487.119.55.128.723.568.83,1.1.525,3.454,1.012,4.827h-.579c-.654-.394-1.661-.159-2.025-.852C97.752,87.28,99.688,84.486,99.558,83.92ZM96.81,88.606H97.1C96.927,88.834,97.038,88.779,96.81,88.606Zm2.748,1.136c.705.229,1.2.291,1.446.994.39.555-.007,1.374-.145,1.846a2.784,2.784,0,0,1-2.459.142,3.244,3.244,0,0,1-.434-1.846c.3-.348.559-.668.868-.994A1.23,1.23,0,0,0,99.558,89.741Zm-26.469.142c.954-.037,1.5.044,1.88.568.5.6.178,1.459,0,2.13a3.366,3.366,0,0,1-2.025.426c-.357-.468-.641-.473-.723-1.278-.307-.44-.028-1.034.145-1.42A4.508,4.508,0,0,0,73.089,89.883Z" transform="translate(-48.09 0)" fill="#e3bb1c"/>
  </g>
</svg>
